<svg width="1238" height="948" viewBox="0 0 1238 948" fill="none" xmlns="http://www.w3.org/2000/svg">
<circle id="Ellipse 4" cx="463" cy="192" r="160" fill="#C4C4C4"/>
<circle id="Ellipse 1" cx="318" cy="594" r="318" fill="#BEBEBE"/>
<ellipse id="Ellipse 2" cx="904" cy="289" rx="300" ry="289" fill="#C4C4C4"/>
<g id="project2 1">
<g clip-path="url(#clip0)">
<ellipse id="Ellipse 3" cx="1098" cy="766" rx="135" ry="128" fill="#C4C4C4"/>
<path id="Vector" d="M1084.99 450.388C1037.17 262.348 871.934 126.61 677.985 121.166C575.451 118.287 467.556 152.294 389 271.294C248.574 484.019 397.63 631.019 501.548 700.87C551.753 734.685 596.99 775.344 635.95 821.67C706.143 904.966 841.179 1008.47 1002 846.294C1118.56 728.746 1116.84 575.64 1084.99 450.388Z" fill="#424242"/>
<path id="Vector_2" opacity="0.1" d="M869.6 628.394L968 530.294L869.6 432.194L899.6 402.294L1028 530.294L899.6 658.294L869.6 628.394Z" fill="black"/>
<path id="Vector_3" opacity="0.1" d="M588.6 537.294H628.6V497.294H588.6V537.294ZM789.4 497.294H749.4V537.294H789.4V497.294ZM669 537.294H709V497.294H669V537.294Z" fill="black"/>
<path id="Vector_4" opacity="0.1" d="M534.4 627.394L435.9 529.294L534.3 431.194L504.3 401.294L376 529.294L504.4 657.294L534.4 627.394Z" fill="black"/>
<path id="Vector_5" d="M1238 873.294C1238 889.862 994.443 947.294 694 947.294C393.557 947.294 150 889.862 150 873.294C150 856.725 393.557 887.294 694 887.294C994.443 887.294 1238 856.725 1238 873.294Z" fill="#3F3D56"/>
<path id="Vector_6" opacity="0.1" d="M1238 873.294C1238 889.862 994.443 947.294 694 947.294C393.557 947.294 150 889.862 150 873.294C150 856.725 393.557 887.294 694 887.294C994.443 887.294 1238 856.725 1238 873.294Z" fill="black"/>
<path id="Vector_7" d="M694 903.294C994.443 903.294 1238 889.862 1238 873.294C1238 856.725 994.443 843.294 694 843.294C393.557 843.294 150 856.725 150 873.294C150 889.862 393.557 903.294 694 903.294Z" fill="#3F3D56"/>
<path id="Vector_8" d="M782.696 728.953C782.696 792.969 822.856 844.77 872.487 844.77Z" fill="#51A755"/>
<path id="Vector_9" d="M872.487 844.77C872.487 780.035 917.303 727.652 972.688 727.652Z" fill="#B9FFB3"/>
<path id="Vector_10" d="M815.229 734.756C815.229 795.565 840.839 844.77 872.487 844.77Z" fill="#9EFFB4"/>
<path id="Vector_11" d="M872.487 844.77C872.487 762.053 924.288 695.119 988.304 695.119Z" fill="#7CD56E"/>
<path id="Vector_12" d="M853.597 845.587C853.597 845.587 866.331 845.195 870.169 842.462C874.006 839.729 889.756 836.466 890.708 840.849C891.661 845.232 909.845 862.646 895.469 862.762C881.092 862.878 862.064 860.523 858.234 858.19C854.404 855.857 853.597 845.587 853.597 845.587Z" fill="#B07373"/>
<path id="Vector_13" opacity="0.2" d="M895.725 861.237C881.349 861.353 862.321 858.998 858.491 856.664C855.574 854.888 854.411 848.512 854.022 845.57C853.753 845.582 853.597 845.587 853.597 845.587C853.597 845.587 854.404 855.857 858.234 858.19C862.064 860.523 881.092 862.879 895.469 862.763C899.619 862.729 901.052 861.253 900.973 859.066C900.397 860.387 898.814 861.212 895.725 861.237Z" fill="black"/>
<path id="Vector_14" d="M1015.53 503.853C1015.53 503.853 984.745 480.476 982.408 489.045C980.071 497.614 1005 517.089 1005 517.089L1015.53 503.853Z" fill="#FFB9B9"/>
<path id="Vector_15" opacity="0.1" d="M1015.53 503.853C1015.53 503.853 984.745 480.476 982.408 489.045C980.071 497.614 1005 517.089 1005 517.089L1015.53 503.853Z" fill="black"/>
<path id="Vector_16" d="M1117.17 429.842C1117.17 429.842 1080.56 495.277 1079.78 504.625C1079 513.973 1079 514.752 1075.89 513.973C1072.77 513.194 1029.93 508.52 1026.03 510.078C1022.14 511.636 1014.35 500.73 1014.35 500.73C1014.35 500.73 999.545 515.531 1002.66 518.647C1005.78 521.763 1015.12 523.321 1016.68 527.216C1018.24 531.111 1020.58 535.006 1027.59 534.227C1034.6 533.448 1082.12 546.691 1088.35 544.354C1094.58 542.017 1096.14 538.122 1099.26 538.122C1102.37 538.122 1108.6 535.006 1108.6 534.227C1108.6 533.448 1130.42 492.161 1130.42 492.161C1130.42 492.161 1156.12 436.074 1117.17 429.842Z" fill="#D0CDE1"/>
<path id="Vector_17" opacity="0.1" d="M1117.17 429.842C1117.17 429.842 1080.56 495.277 1079.78 504.625C1079 513.973 1079 514.752 1075.89 513.973C1072.77 513.194 1029.93 508.52 1026.03 510.078C1022.14 511.636 1014.35 500.73 1014.35 500.73C1014.35 500.73 999.545 515.531 1002.66 518.647C1005.78 521.763 1015.12 523.321 1016.68 527.216C1018.24 531.111 1020.58 535.006 1027.59 534.227C1034.6 533.448 1082.12 546.691 1088.35 544.354C1094.58 542.017 1096.14 538.122 1099.26 538.122C1102.37 538.122 1108.6 535.006 1108.6 534.227C1108.6 533.448 1130.42 492.161 1130.42 492.161C1130.42 492.161 1156.12 436.074 1117.17 429.842Z" fill="black"/>
<path id="Vector_18" d="M1064.05 386.704C1063.72 390.841 1063.79 395 1064.25 399.124C1065.44 408.074 1069.56 417.403 1065.66 425.757C1064.25 428.79 1061.86 431.432 1060.56 434.5C1057.8 440.997 1060.3 448.202 1059.92 455.116C1059.44 464.048 1053.76 472.654 1045.12 477.549C1059.88 478.008 1073.92 470.708 1083.21 460.761C1092.5 450.814 1097.67 438.477 1101.55 426.133C1103.54 420.336 1104.82 414.318 1105.36 408.211C1105.66 404.703 1105.25 401.169 1104.15 397.825C1102.78 394.559 1100.99 391.49 1098.8 388.702C1096.48 385.432 1094.09 382.097 1090.66 379.663C1086.43 376.666 1078.28 373.657 1072.67 374.093C1065.79 374.628 1064.34 381.93 1064.05 386.704Z" fill="#2F2E41"/>
<path id="Vector_19" d="M1086.79 411.146C1086.79 411.146 1095.36 441.527 1088.35 450.096C1081.34 458.665 1130.42 446.201 1130.42 446.201C1130.42 446.201 1106.27 422.052 1117.95 406.472L1086.79 411.146Z" fill="#FFB9B9"/>
<path id="Vector_20" opacity="0.1" d="M1086.79 411.146C1086.79 411.146 1095.36 441.527 1088.35 450.096C1081.34 458.665 1130.42 446.201 1130.42 446.201C1130.42 446.201 1106.27 422.052 1117.95 406.472L1086.79 411.146Z" fill="black"/>
<path id="Vector_21" d="M869.6 609.394L968 511.294L869.6 413.194L899.6 383.294L1028 511.294L899.6 639.294L869.6 609.394Z" fill="#D3CDD0"/>
<path id="Vector_22" d="M1058.75 816.221V838.812L1070.43 852.833L1080.56 848.159L1077.44 815.442L1058.75 816.221Z" fill="#FFB9B9"/>
<path id="Vector_23" d="M1063.42 837.253C1063.42 837.253 1060.31 826.348 1054.85 834.137C1049.4 841.927 1043.95 859.065 1040.83 859.844C1037.72 860.623 1015.9 884.772 1037.72 884.772C1059.53 884.772 1066.54 874.645 1066.54 874.645C1066.54 874.645 1088.35 866.076 1088.35 864.518C1088.35 862.96 1085.23 834.137 1083.68 834.137C1082.12 834.137 1081.34 839.59 1077.44 839.59C1073.55 839.59 1063.42 837.253 1063.42 837.253Z" fill="#2F2E41"/>
<path id="Vector_24" d="M1110.94 820.116L1110.16 841.149L1128.86 848.938V818.558L1110.94 820.116Z" fill="#FFB9B9"/>
<path id="Vector_25" d="M1131.19 841.148C1131.19 841.148 1121.07 830.243 1115.61 832.58C1112.92 833.665 1110.31 834.968 1107.82 836.474C1107.82 836.474 1104.71 846.601 1103.15 855.17C1101.59 863.739 1100.81 867.634 1099.26 870.75C1097.7 873.866 1096.14 885.551 1111.72 887.109C1127.3 888.667 1131.97 880.098 1131.97 880.098L1135.87 859.844C1135.87 859.844 1134.31 841.148 1131.19 841.148Z" fill="#2F2E41"/>
<path id="Vector_26" d="M1068.88 595.767C1068.88 595.767 1046.28 646.401 1049.4 692.362C1049.4 692.362 1041.61 710.278 1046.28 738.322C1050.96 766.366 1057.19 822.453 1057.19 822.453C1057.19 822.453 1078.22 824.79 1079.78 820.895C1079.78 820.895 1081.34 781.945 1082.9 780.387C1084.45 778.83 1082.12 742.996 1079.78 735.985C1077.44 728.974 1101.59 659.644 1101.59 659.644L1095.36 573.176L1068.88 595.767Z" fill="#2F2E41"/>
<path id="Vector_27" opacity="0.1" d="M1068.88 595.767C1068.88 595.767 1046.28 646.401 1049.4 692.362C1049.4 692.362 1041.61 710.278 1046.28 738.322C1050.96 766.366 1057.19 822.453 1057.19 822.453C1057.19 822.453 1078.22 824.79 1079.78 820.895C1079.78 820.895 1081.34 781.945 1082.9 780.387C1084.45 778.83 1082.12 742.996 1079.78 735.985C1077.44 728.974 1101.59 659.644 1101.59 659.644L1095.36 573.176L1068.88 595.767Z" fill="black"/>
<path id="Vector_28" d="M1062.64 592.651L1077.44 624.59C1077.44 624.59 1084.46 697.036 1088.35 706.383C1088.35 706.383 1089.91 732.869 1096.92 741.438C1103.93 750.007 1109.38 825.569 1109.38 825.569C1109.38 825.569 1128.86 831.022 1130.42 825.569C1131.97 820.116 1136.65 782.724 1136.65 782.724C1136.65 782.724 1138.21 750.786 1129.64 729.753C1121.07 708.72 1139.76 633.158 1139.76 633.158C1139.76 633.158 1159.24 596.546 1131.19 566.944L1062.64 592.651Z" fill="#2F2E41"/>
<path id="Vector_29" d="M1103.93 420.494C1121.57 420.494 1135.87 406.195 1135.87 388.556C1135.87 370.917 1121.57 356.617 1103.93 356.617C1086.29 356.617 1071.99 370.917 1071.99 388.556C1071.99 406.195 1086.29 420.494 1103.93 420.494Z" fill="#FFB9B9"/>
<path id="Vector_30" d="M1133.53 436.853C1133.53 436.853 1100.03 436.853 1095.36 440.748C1094.21 441.848 1092.67 442.461 1091.08 442.461C1089.48 442.461 1087.95 441.848 1086.79 440.748C1086.79 440.748 1075.11 441.527 1071.99 450.875C1068.88 460.223 1059.53 472.687 1059.53 472.687C1059.53 472.687 1045.51 482.813 1053.3 509.299C1061.09 535.785 1054.85 578.629 1054.85 578.629C1054.85 578.629 1048.62 587.977 1054.85 591.872C1061.09 595.767 1063.42 597.325 1062.64 600.441C1061.86 603.557 1133.53 574.734 1133.53 569.281C1133.53 563.828 1131.97 559.154 1133.53 556.817C1135.09 554.48 1136.65 550.585 1135.09 546.69C1133.53 542.796 1136.65 542.017 1135.87 538.122C1135.09 534.227 1139.76 505.404 1142.88 492.94C1146 480.476 1145.22 437.632 1133.53 436.853Z" fill="#868686"/>
<path id="Vector_31" d="M1015.53 513.2C1015.53 513.2 984.745 489.824 982.408 498.393C980.071 506.962 1005 526.437 1005 526.437L1015.53 513.2Z" fill="#FFB9B9"/>
<path id="Vector_32" d="M1117.17 440.748C1117.17 440.748 1080.56 506.183 1079.78 515.531C1079 524.879 1079 525.658 1075.89 524.879C1072.77 524.1 1029.93 519.426 1026.03 520.984C1022.14 522.542 1014.35 511.636 1014.35 511.636C1014.35 511.636 999.545 526.437 1002.66 529.553C1005.78 532.669 1015.12 534.227 1016.68 538.122C1018.24 542.017 1020.58 545.912 1027.59 545.133C1034.6 544.354 1082.12 557.596 1088.35 555.259C1094.58 552.923 1096.14 549.028 1099.26 549.028C1102.37 549.028 1108.6 545.912 1108.6 545.133C1108.6 544.354 1130.42 503.067 1130.42 503.067C1130.42 503.067 1156.12 446.98 1117.17 440.748Z" fill="#FFB9B9"/>
<path id="Vector_33" d="M1088.11 408.961C1087.67 405.798 1086.05 402.928 1085.22 399.844C1084.57 397.376 1084.43 394.802 1084.8 392.276C1085.17 389.751 1086.04 387.326 1087.38 385.149C1091.96 377.749 1100.95 374.472 1107.22 368.44C1107.35 371.513 1109.49 374.139 1111.84 376.115C1114.2 378.091 1116.9 379.694 1118.9 382.034C1120.81 384.503 1122.21 387.334 1123.01 390.358C1124.24 393.861 1124.79 397.566 1124.63 401.275C1124.54 403.128 1124.07 404.944 1123.26 406.612C1122.45 408.279 1121.3 409.764 1119.9 410.977C1117.56 412.823 1114.3 413.878 1113.17 416.633C1112.72 418.01 1112.6 419.47 1112.79 420.903C1113.33 429.474 1113.83 438.197 1111.81 446.543C1109.79 454.89 1104.85 462.954 1097.1 466.654C1103.47 467.105 1109.97 467.546 1116.15 465.938C1122.33 464.331 1128.23 460.283 1130.36 454.265C1131.42 451.296 1131.51 447.994 1133.01 445.221C1136.79 438.203 1147.22 437.883 1152.35 431.778C1154.4 429.336 1155.39 426.188 1156.13 423.084C1160.46 404.819 1157.41 385.425 1150.83 367.849C1148.55 361.791 1145.73 355.691 1140.86 351.434C1136.71 347.81 1131.42 345.814 1126.18 344.109C1118.54 341.621 1110.67 339.583 1102.64 339.32C1099.15 339.115 1095.66 339.523 1092.31 340.526C1089 341.72 1085.93 343.472 1083.22 345.706C1070.64 355.494 1062.07 371.137 1063.21 387.036C1063.9 396.655 1067.97 405.759 1073.21 413.858C1075.04 416.691 1079.37 422.731 1083.39 420.95C1087.04 419.334 1088.59 412.377 1088.11 408.961Z" fill="#2F2E41"/>
<path id="Vector_34" d="M588.6 518.294H628.6V478.294H588.6V518.294ZM789.4 478.294H749.4V518.294H789.4V478.294ZM669 518.294H709V478.294H669V518.294Z" fill="#D3CDD0"/>
<path id="Vector_35" d="M356.206 359.091C374.794 359.091 389.863 347.338 389.863 332.839C389.863 318.34 374.794 306.586 356.206 306.586C337.618 306.586 322.549 318.34 322.549 332.839C322.549 347.338 337.618 359.091 356.206 359.091Z" fill="#2F2E41"/>
<path id="Vector_36" d="M361.927 513.576C361.927 513.576 392.219 515.596 397.604 511.557C402.989 507.518 425.876 516.942 427.895 522.327C429.914 527.712 395.584 528.385 390.199 528.385C384.814 528.385 359.235 536.463 359.235 536.463L361.927 513.576Z" fill="#A0616A"/>
<path id="Vector_37" d="M299.552 827.138C299.552 827.138 285.435 862.738 292.801 867.034C300.166 871.331 377.502 868.262 377.502 868.262C377.502 868.262 390.392 860.283 375.661 854.759C375.661 854.759 363.385 854.145 355.406 849.235C347.427 844.324 338.22 835.118 338.22 835.118C338.22 835.118 337.607 821.614 332.696 824.683C331.227 825.651 329.977 826.916 329.026 828.395C328.074 829.875 327.443 831.538 327.172 833.276L299.552 827.138Z" fill="#2F2E41"/>
<path id="Vector_38" opacity="0.1" d="M299.552 827.138C299.552 827.138 285.435 862.738 292.801 867.034C300.166 871.331 377.502 868.262 377.502 868.262C377.502 868.262 390.392 860.283 375.661 854.759C375.661 854.759 363.385 854.145 355.406 849.235C347.427 844.324 338.22 835.118 338.22 835.118C338.22 835.118 337.607 821.614 332.696 824.683C331.227 825.651 329.977 826.916 329.026 828.395C328.074 829.875 327.443 831.538 327.172 833.276L299.552 827.138Z" fill="black"/>
<path id="Vector_39" d="M534.4 608.394L435.9 510.294L534.3 412.194L504.3 382.294L376 510.294L504.4 638.294L534.4 608.394Z" fill="#D3CDD0"/>
<path id="Vector_40" d="M277.785 838.029C277.785 838.029 262.303 877.071 270.381 881.783C278.459 886.495 363.274 883.129 363.274 883.129C363.274 883.129 377.41 874.378 361.254 868.32C361.254 868.32 347.792 867.647 339.041 862.262C330.29 856.877 320.193 846.78 320.193 846.78C320.193 846.78 319.52 831.971 314.135 835.336C312.524 836.398 311.152 837.785 310.109 839.408C309.066 841.031 308.373 842.854 308.077 844.76L277.785 838.029Z" fill="#2F2E41"/>
<path id="Vector_41" d="M357.215 590.314L347.791 675.129C347.791 675.129 344.426 715.518 334.329 724.268C334.329 724.268 334.329 737.058 330.963 741.097L326.251 794.275C326.251 794.275 332.982 813.796 332.309 817.162C331.636 820.527 335.002 831.297 334.329 832.644C333.656 833.99 302.018 832.644 302.018 832.644L308.749 724.268L329.617 573.486L357.215 590.314Z" fill="#2F2E41"/>
<path id="Vector_42" opacity="0.1" d="M357.215 590.314L347.791 675.129C347.791 675.129 344.426 715.518 334.329 724.268C334.329 724.268 334.329 737.058 330.963 741.097L326.251 794.275C326.251 794.275 332.982 813.796 332.309 817.162C331.636 820.527 335.002 831.297 334.329 832.644C333.656 833.99 302.018 832.644 302.018 832.644L308.749 724.268L329.617 573.486L357.215 590.314Z" fill="black"/>
<path id="Vector_43" d="M340.387 587.621C340.387 587.621 332.983 656.955 329.617 671.764C327.501 681.516 326.151 691.419 325.578 701.382C325.578 701.382 324.905 722.922 318.847 728.98C317.074 730.735 315.682 732.836 314.755 735.152C313.829 737.468 313.389 739.95 313.462 742.443C313.462 742.443 307.404 810.43 310.769 818.508C314.135 826.585 317.501 833.317 314.135 838.702C310.769 844.087 273.747 844.087 273.747 840.048C273.747 836.009 273.747 832.644 271.727 830.624C269.708 828.605 271.727 815.815 271.727 815.815C271.727 815.815 263.65 755.906 271.054 738.404C278.459 720.903 281.824 673.11 281.824 673.11C281.824 673.11 276.439 618.586 269.708 609.835C262.976 601.084 271.054 570.12 271.054 570.12L340.387 587.621Z" fill="#2F2E41"/>
<path id="Vector_44" d="M321.436 372.312C322.218 374.095 324.091 375.087 325.796 376.027C335.679 381.471 343.952 389.365 352.103 397.168C350.069 390.276 350.502 382.891 353.328 376.284C354.301 374.031 355.576 371.608 354.881 369.254C354.369 367.523 352.895 366.275 351.467 365.17C348.142 362.598 344.666 360.227 341.058 358.068C338.537 356.56 333.355 352.546 330.463 352.983C330.311 356.891 330.232 360.385 328.521 364.037C328.115 364.903 321.735 372.994 321.436 372.312Z" fill="#A0616A"/>
<path id="Vector_45" d="M355.869 380.968C371.111 380.968 383.468 368.612 383.468 353.369C383.468 338.127 371.111 325.771 355.869 325.771C340.627 325.771 328.271 338.127 328.271 353.369C328.271 368.612 340.627 380.968 355.869 380.968Z" fill="#A0616A"/>
<path id="Vector_46" d="M357.215 418.664C357.215 418.664 361.927 395.104 348.465 387.026C335.002 378.949 319.52 369.525 319.52 369.525C319.52 369.525 314.808 368.852 312.788 378.949C312.788 378.949 274.419 386.353 270.381 422.703C266.342 459.052 273.073 512.23 273.073 512.23C273.073 512.23 267.015 558.677 259.61 583.583C259.61 583.583 253.552 588.968 280.478 580.89C307.403 572.812 354.523 603.777 354.523 603.777C354.523 603.777 359.235 599.065 359.235 595.699C359.235 592.333 364.62 572.812 364.62 572.812C364.62 572.812 369.332 490.016 371.351 480.592C373.371 471.169 363.274 420.01 357.215 418.664Z" fill="#575A89"/>
<path id="Vector_47" d="M349.365 356.213C351.023 355.294 352.882 354.799 354.778 354.771C356.675 354.743 358.528 354.191 360.132 353.176C362.739 351.174 362.93 347.306 364.837 344.63C367.598 340.754 373.107 340.288 377.861 340.482C380.769 340.6 383.901 340.774 386.35 339.201C388.864 337.587 390.003 334.544 390.851 331.679C391.853 328.291 392.501 324.148 390.017 321.635C388.293 319.89 385.57 319.545 383.654 318.013C381.667 316.424 380.849 313.838 379.77 311.535C378.541 308.728 376.597 306.293 374.132 304.473C370.517 301.962 365.901 301.399 361.499 301.446C357.098 301.493 352.678 302.072 348.31 301.531C344.731 301.089 341.163 299.898 337.595 300.426C333.049 301.098 329.289 304.528 327.049 308.54C324.809 312.553 323.848 317.133 322.916 321.632L320.381 333.871C319.595 337.666 318.806 341.563 319.412 345.391C320.67 353.328 327.689 359.637 328.173 367.658C328.634 365.443 329.638 363.377 331.094 361.645C332.55 359.914 334.413 358.571 336.516 357.737C337.043 357.479 337.642 357.406 338.216 357.531C338.913 357.754 339.321 358.45 339.761 359.035C340.914 360.568 344.536 362.894 346.589 361.807C348.427 360.834 347.055 357.779 349.365 356.213Z" fill="#2F2E41"/>
<path id="Vector_48" d="M279.805 481.939C279.805 481.939 275.093 511.557 294.614 508.864C294.614 508.864 304.711 507.518 306.057 508.864C307.403 510.211 357.216 501.46 363.947 494.055C363.947 494.055 372.025 491.363 376.063 495.402C380.102 499.441 420.49 503.479 408.374 491.363C396.258 479.246 377.41 476.554 377.41 476.554L351.83 477.9C351.83 477.9 338.368 481.939 330.29 477.9C322.212 473.861 299.326 475.208 299.326 475.208L279.805 481.939Z" fill="#A0616A"/>
<path id="Vector_49" d="M307.404 388.373C307.404 388.373 277.112 391.738 277.112 435.492V491.363C277.112 491.363 293.941 483.958 297.306 484.631C300.672 485.304 314.135 475.881 314.135 475.881C314.135 475.881 329.617 439.531 328.271 429.434C326.925 419.337 327.598 389.719 307.404 388.373Z" fill="#575A89"/>
<path id="Vector_50" d="M355.869 349.667C370.182 349.667 381.785 343.64 381.785 336.204C381.785 328.769 370.182 322.742 355.869 322.742C341.557 322.742 329.954 328.769 329.954 336.204C329.954 343.64 341.557 349.667 355.869 349.667Z" fill="#2F2E41"/>
<path id="Vector_51" d="M331.636 361.11C336.655 361.11 340.724 351.014 340.724 338.56C340.724 326.106 336.655 316.01 331.636 316.01C326.617 316.01 322.549 326.106 322.549 338.56C322.549 351.014 326.617 361.11 331.636 361.11Z" fill="#2F2E41"/>
</g>
</g>
<defs>
<clipPath id="clip0">
<rect x="150" y="121" width="1088" height="826.294" fill="white"/>
</clipPath>
</defs>
</svg>
